<?xml version="1.0" encoding="UTF-8"?>
<svg width="100" height="100" viewBox="0 0 100 100" xmlns="http://www.w3.org/2000/svg">
  <style>
    .logo-bg { fill: #4e73df; }
    .logo-text { fill: #ffffff; font-family: Arial, sans-serif; font-weight: bold; }
    .logo-icon { fill: #ffffff; }
  </style>
  <circle class="logo-bg" cx="50" cy="50" r="45" />
  <text class="logo-text" x="50" y="40" font-size="16" text-anchor="middle">STUDENT</text>
  <text class="logo-text" x="50" y="65" font-size="14" text-anchor="middle">WORKFLOW</text>
  <path class="logo-icon" d="M30,75 L70,75 C72.76,75 75,72.76 75,70 L75,30 C75,27.24 72.76,25 70,25 L30,25 C27.24,25 25,27.24 25,30 L25,70 C25,72.76 27.24,75 30,75 Z M35,35 L65,35 L65,40 L35,40 L35,35 Z M35,45 L65,45 L65,50 L35,50 L35,45 Z M35,55 L55,55 L55,60 L35,60 L35,55 Z" opacity="0.3"/>
</svg>